<svg version="1.1" xmlns="http://www.w3.org/2000/svg" viewBox="0 0 406.66666666666765 542.2222222222217" width="406.66666666666765" height="542.2222222222217">
  <!-- svg-source:excalidraw -->
  
  <defs>
    <style class="style-fonts">
      @font-face {
        font-family: "Virgil";
        src: url("https://excalidraw.com/Virgil.woff2");
      }
      @font-face {
        font-family: "Cascadia";
        src: url("https://excalidraw.com/Cascadia.woff2");
      }
      @font-face {
        font-family: "Assistant";
        src: url("https://excalidraw.com/Assistant-Regular.woff2");
      }
    </style>
    
  </defs>
  <rect x="0" y="0" width="406.66666666666765" height="542.2222222222217" fill="#ffffff"></rect><g stroke-linecap="round"><g transform="translate(40.99156829768458 154.14461734312226) rotate(0 72.5 -59.375)"><path d="M0.14 0.18 C24.38 -19.94, 120.5 -100.21, 144.6 -119.84 M-1.24 -0.77 C22.87 -20.86, 119.26 -99.11, 143.45 -118.87" stroke="#2f9e44" stroke-width="2" fill="none"></path></g></g><mask></mask><g stroke-linecap="round" transform="translate(183.33333333333394 9.999999999999773) rotate(0 17.77777777777783 18.8888888888888)"><path d="M15.36 0.06 C18.85 -0.8, 23.58 0.6, 26.78 2.63 C29.98 4.66, 33.36 8.38, 34.55 12.23 C35.74 16.08, 35.19 21.87, 33.9 25.76 C32.62 29.65, 30.03 33.59, 26.85 35.57 C23.67 37.54, 18.69 38.39, 14.82 37.61 C10.95 36.83, 6.19 34.11, 3.63 30.87 C1.08 27.62, -0.64 22.14, -0.49 18.14 C-0.34 14.14, 1.75 9.95, 4.52 6.87 C7.29 3.8, 14.1 0.78, 16.13 -0.3 C18.15 -1.38, 16.65 -0.03, 16.67 0.41 M21.41 -0.25 C25.13 0.22, 29.99 3.75, 32.33 6.98 C34.66 10.2, 35.62 15, 35.42 19.11 C35.21 23.22, 33.58 28.43, 31.08 31.62 C28.58 34.81, 24.32 37.74, 20.41 38.25 C16.5 38.76, 10.83 36.83, 7.62 34.67 C4.42 32.52, 2.26 29.13, 1.18 25.3 C0.11 21.48, -0.32 15.61, 1.17 11.73 C2.66 7.85, 6.71 3.99, 10.12 2.02 C13.52 0.04, 19.76 -0.05, 21.61 -0.12 C23.46 -0.2, 21.32 1.04, 21.21 1.56" stroke="none" stroke-width="0" fill="#b2f2bb"></path><path d="M17.65 0.37 C21.25 0.06, 25.97 1.42, 28.99 3.89 C32 6.36, 35.05 11.16, 35.72 15.19 C36.38 19.21, 34.82 24.49, 32.96 28.06 C31.09 31.63, 27.98 35.06, 24.5 36.59 C21.03 38.12, 15.83 38.5, 12.1 37.23 C8.36 35.97, 4.02 32.57, 2.09 28.99 C0.15 25.41, -0.27 19.78, 0.47 15.76 C1.2 11.74, 3.39 7.55, 6.49 4.86 C9.59 2.17, 16.89 0.36, 19.07 -0.41 C21.25 -1.18, 19.74 -0.13, 19.59 0.24 M20.87 -0.45 C24.61 0.02, 29.45 3.14, 31.91 6.4 C34.37 9.67, 35.66 14.97, 35.61 19.14 C35.55 23.31, 34.1 28.35, 31.58 31.43 C29.06 34.51, 24.14 37.03, 20.49 37.62 C16.83 38.2, 12.95 36.88, 9.65 34.95 C6.35 33.02, 2.14 29.87, 0.67 26.02 C-0.79 22.17, -0.43 15.72, 0.84 11.83 C2.11 7.93, 5.09 4.66, 8.29 2.64 C11.5 0.62, 18.02 0.14, 20.06 -0.28 C22.11 -0.7, 20.37 -0.21, 20.56 0.12" stroke="#2f9e44" stroke-width="2" fill="none"></path></g><g stroke-linecap="round" transform="translate(183.33333333333394 63.33333333333326) rotate(0 17.77777777777783 18.8888888888888)"><path d="M19.83 0.12 C23.4 0.37, 27.98 3.34, 30.62 6.23 C33.26 9.13, 35.52 13.52, 35.66 17.48 C35.81 21.45, 33.86 26.69, 31.49 30.01 C29.12 33.32, 25.15 36.38, 21.44 37.39 C17.73 38.4, 12.63 37.87, 9.21 36.06 C5.79 34.25, 2.32 30.26, 0.91 26.54 C-0.49 22.81, -0.51 17.72, 0.76 13.72 C2.04 9.73, 5.28 4.86, 8.56 2.57 C11.85 0.28, 18.37 0.33, 20.49 0 C22.61 -0.33, 21.3 0.23, 21.3 0.6 M19.89 0.23 C23.58 0.72, 28.92 3.84, 31.45 6.75 C33.98 9.66, 35.05 13.7, 35.07 17.71 C35.09 21.71, 33.74 27.4, 31.58 30.76 C29.41 34.13, 25.73 37.01, 22.09 37.88 C18.45 38.75, 13.17 37.97, 9.73 35.96 C6.28 33.96, 3 29.78, 1.43 25.85 C-0.15 21.93, -0.78 16.24, 0.29 12.41 C1.37 8.59, 4.5 4.95, 7.88 2.9 C11.26 0.85, 18.55 0.44, 20.57 0.12 C22.59 -0.19, 20.16 0.6, 19.97 1.01" stroke="none" stroke-width="0" fill="#ffc9c9"></path><path d="M16.77 0.04 C20.26 -0.47, 24.8 1.34, 27.92 3.69 C31.04 6.03, 34.49 10.15, 35.5 14.11 C36.5 18.08, 35.75 23.77, 33.94 27.49 C32.14 31.2, 28.15 34.75, 24.68 36.39 C21.2 38.03, 16.71 38.5, 13.09 37.32 C9.48 36.14, 5.14 32.72, 2.99 29.32 C0.84 25.92, -0.26 20.95, 0.21 16.91 C0.68 12.87, 2.97 7.86, 5.8 5.08 C8.62 2.3, 15.24 1.03, 17.18 0.23 C19.11 -0.58, 17.36 -0.11, 17.41 0.24 M18.54 -0.48 C22.34 -0.49, 27.76 1.78, 30.57 4.62 C33.38 7.46, 35.12 12.45, 35.41 16.56 C35.69 20.68, 34.3 25.87, 32.31 29.29 C30.32 32.72, 26.95 35.93, 23.45 37.12 C19.94 38.31, 14.87 37.97, 11.3 36.42 C7.73 34.87, 3.77 31.39, 2.04 27.81 C0.32 24.23, 0.13 19.07, 0.94 14.93 C1.76 10.79, 3.87 5.58, 6.94 2.98 C10 0.39, 17.38 -0.31, 19.35 -0.63 C21.32 -0.95, 18.86 0.67, 18.75 1.07" stroke="#e03131" stroke-width="2" fill="none"></path></g><g stroke-linecap="round"><g transform="translate(42.65823496435155 204.97795067645552) rotate(0 71.66666666666652 -60.41666666666663)"><path d="M0.58 -0.53 C24.24 -20.49, 118.36 -100.28, 142.2 -120.19 M-0.57 1.81 C23.42 -18.47, 120.39 -101.35, 144.32 -121.98" stroke="#e03131" stroke-width="2" fill="none"></path></g></g><mask></mask><g stroke-linecap="round"><g transform="translate(41.824901631018065 208.31128400978878) rotate(0 69.16666666666663 -32.5)"><path d="M-0.94 0.33 C22.29 -10.56, 115.78 -54.65, 139.08 -65.59 M0.77 -0.54 C23.93 -11.25, 115.6 -53.76, 138.52 -64.37" stroke="#e03131" stroke-width="2" fill="none"></path></g></g><mask></mask><g stroke-linecap="round"><g transform="translate(42.65823496435155 213.31128400978878) rotate(0 69.99999999999989 -7.5)"><path d="M0.16 0.67 C23.54 -1.63, 117.27 -11.7, 140.43 -14.33 M-1.21 -0.02 C22.03 -2.62, 115.91 -13.8, 139.71 -16.1" stroke="#e03131" stroke-width="2" fill="none"></path></g></g><mask></mask><g stroke-linecap="round" transform="translate(183.3333333333344 124.44444444444412) rotate(0 17.77777777777783 18.8888888888888)"><path d="M18.63 0.45 C22.41 0.27, 27.22 2.03, 29.97 4.65 C32.71 7.27, 34.66 12.1, 35.08 16.16 C35.5 20.23, 34.45 25.6, 32.47 29.06 C30.49 32.53, 26.77 35.78, 23.21 36.95 C19.66 38.13, 14.6 37.68, 11.12 36.1 C7.65 34.52, 4.14 30.99, 2.37 27.47 C0.6 23.96, -0.3 18.91, 0.49 15.01 C1.28 11.11, 4.05 6.58, 7.11 4.07 C10.17 1.57, 16.87 0.57, 18.87 -0.03 C20.86 -0.62, 19.03 0.22, 19.08 0.5 M18.99 -0.48 C22.55 -0.52, 27.56 2.19, 30.26 5.11 C32.96 8.04, 34.75 12.93, 35.2 17.07 C35.65 21.21, 35.09 26.64, 32.95 29.94 C30.8 33.24, 26.04 35.79, 22.36 36.88 C18.67 37.96, 14.21 38.22, 10.83 36.46 C7.46 34.7, 3.91 29.99, 2.12 26.34 C0.32 22.68, -0.79 18.34, 0.09 14.54 C0.96 10.75, 4.13 5.9, 7.36 3.56 C10.59 1.21, 17.57 1.03, 19.48 0.49 C21.38 -0.05, 18.78 0.08, 18.8 0.34" stroke="none" stroke-width="0" fill="#a5d8ff"></path><path d="M17.57 0.31 C21.09 0.11, 25.9 2.13, 28.81 4.7 C31.73 7.28, 34.3 11.79, 35.07 15.76 C35.84 19.73, 35.22 25.03, 33.42 28.52 C31.62 32.02, 27.91 35.33, 24.26 36.72 C20.62 38.12, 15.18 38.26, 11.53 36.88 C7.88 35.51, 4.26 31.91, 2.37 28.45 C0.47 24.99, -0.47 20.14, 0.16 16.13 C0.79 12.12, 3.16 7.08, 6.14 4.39 C9.12 1.71, 15.99 0.75, 18.03 0.02 C20.08 -0.72, 18.42 -0.35, 18.39 -0.03 M15.64 0.59 C19.21 -0.2, 23.58 0.81, 26.84 3 C30.1 5.18, 33.92 9.98, 35.19 13.69 C36.46 17.39, 36.02 21.67, 34.47 25.24 C32.92 28.81, 29.31 33.06, 25.91 35.09 C22.5 37.12, 17.7 38.14, 14.04 37.42 C10.37 36.7, 6.18 34.01, 3.91 30.76 C1.64 27.52, 0.23 22.14, 0.4 17.95 C0.58 13.77, 2.49 8.7, 4.95 5.66 C7.41 2.61, 13.33 0.44, 15.17 -0.29 C17.01 -1.03, 16.01 0.79, 15.99 1.23" stroke="#1971c2" stroke-width="2" fill="none"></path></g><g stroke-linecap="round" transform="translate(183.3333333333344 178.88888888888846) rotate(0 17.77777777777783 18.8888888888888)"><path d="M19.4 -0.01 C22.9 -0.05, 27.21 2.51, 29.8 5.37 C32.4 8.24, 34.54 13.16, 34.96 17.19 C35.37 21.22, 34.36 26.32, 32.3 29.56 C30.23 32.8, 26.14 35.61, 22.56 36.64 C18.97 37.66, 14.23 37.29, 10.8 35.69 C7.37 34.1, 3.62 30.63, 1.98 27.07 C0.34 23.51, 0.07 18.24, 0.95 14.32 C1.83 10.41, 4.28 5.96, 7.25 3.59 C10.22 1.22, 16.68 0.66, 18.8 0.1 C20.92 -0.47, 19.88 -0.14, 19.96 0.22 M19.69 -0.2 C23.3 0.06, 27.6 2.76, 30.32 5.79 C33.05 8.81, 35.76 13.96, 36.04 17.96 C36.31 21.96, 34.23 26.54, 31.97 29.81 C29.71 33.09, 26.08 36.72, 22.47 37.61 C18.87 38.51, 13.91 36.95, 10.33 35.17 C6.76 33.39, 2.66 30.5, 1.04 26.92 C-0.58 23.34, -0.59 17.57, 0.6 13.69 C1.79 9.81, 5.04 5.92, 8.17 3.64 C11.29 1.36, 17.32 0.52, 19.33 0.01 C21.33 -0.51, 20.05 0.33, 20.19 0.54" stroke="none" stroke-width="0" fill="#ffec99"></path><path d="M17.19 0.36 C20.78 0.05, 25.75 1.95, 28.79 4.49 C31.83 7.03, 34.62 11.65, 35.43 15.6 C36.23 19.55, 35.55 24.67, 33.62 28.2 C31.69 31.72, 27.48 35.31, 23.86 36.74 C20.24 38.17, 15.47 38.05, 11.9 36.76 C8.33 35.47, 4.4 32.49, 2.43 29 C0.46 25.51, -0.52 19.87, 0.1 15.8 C0.71 11.74, 3.07 7.33, 6.11 4.63 C9.16 1.93, 16.19 0.28, 18.36 -0.41 C20.53 -1.11, 19.19 0.13, 19.14 0.46 M18.96 0.21 C22.62 0.34, 28.05 3.45, 30.84 6.17 C33.63 8.89, 35.47 12.67, 35.69 16.51 C35.9 20.35, 34.34 25.79, 32.12 29.24 C29.89 32.68, 25.95 36.01, 22.34 37.18 C18.72 38.35, 13.79 38.01, 10.41 36.25 C7.04 34.48, 3.64 30.4, 2.07 26.6 C0.5 22.79, 0.1 17.36, 1 13.42 C1.9 9.48, 4.29 5.07, 7.45 2.95 C10.61 0.84, 18.07 1.11, 19.96 0.74 C21.85 0.37, 18.79 0.58, 18.78 0.74" stroke="#f08c00" stroke-width="2" fill="none"></path></g><g stroke-linecap="round" transform="translate(183.3333333333344 331.1111111111111) rotate(0 17.77777777777783 18.8888888888888)"><path d="M14.99 0.2 C18.5 -0.7, 22.99 0.41, 26.26 2.45 C29.53 4.5, 33.32 8.68, 34.62 12.47 C35.92 16.25, 35.38 21.37, 34.06 25.15 C32.73 28.94, 29.85 33.12, 26.66 35.17 C23.46 37.21, 18.63 38.12, 14.89 37.41 C11.16 36.69, 6.75 33.97, 4.26 30.89 C1.77 27.82, 0.01 23.02, -0.05 18.95 C-0.12 14.88, 1.23 9.65, 3.86 6.48 C6.49 3.3, 13.67 0.85, 15.72 -0.11 C17.77 -1.08, 16.25 0.27, 16.17 0.68 M16.41 0.02 C20.15 -0.42, 25.72 1.12, 28.96 3.54 C32.19 5.96, 35.17 10.45, 35.83 14.54 C36.49 18.63, 34.8 24.43, 32.91 28.1 C31.02 31.77, 27.97 35.03, 24.49 36.57 C21.02 38.11, 15.75 38.56, 12.05 37.33 C8.35 36.11, 4.37 32.76, 2.29 29.23 C0.21 25.7, -1.1 20.3, -0.46 16.16 C0.19 12.02, 3.26 7.04, 6.16 4.37 C9.05 1.7, 15.08 0.89, 16.93 0.14 C18.77 -0.6, 17.15 -0.28, 17.22 -0.11" stroke="none" stroke-width="0" fill="#b2f2bb"></path><path d="M14.24 0.05 C17.73 -0.84, 23.35 0.1, 26.71 2.14 C30.07 4.18, 33.16 8.5, 34.41 12.29 C35.66 16.09, 35.56 21.14, 34.22 24.9 C32.89 28.66, 29.63 32.66, 26.39 34.84 C23.16 37.02, 18.44 38.62, 14.8 37.99 C11.17 37.37, 7.08 34.28, 4.58 31.12 C2.09 27.95, -0.17 23.06, -0.17 19.01 C-0.16 14.96, 2.1 9.99, 4.59 6.81 C7.09 3.63, 12.91 0.98, 14.8 -0.07 C16.69 -1.11, 15.85 0.26, 15.93 0.54 M22.44 1.3 C26.04 2.18, 30.54 5.17, 32.74 8.3 C34.95 11.43, 36.04 16.2, 35.65 20.08 C35.25 23.96, 33.02 28.58, 30.4 31.58 C27.79 34.59, 23.71 37.72, 19.94 38.1 C16.17 38.48, 10.91 36.18, 7.78 33.88 C4.66 31.57, 2.14 28.16, 1.19 24.28 C0.25 20.4, 0.7 14.36, 2.11 10.59 C3.52 6.82, 6.2 3.25, 9.65 1.66 C13.1 0.07, 20.63 1.06, 22.8 1.06 C24.97 1.06, 22.78 1.44, 22.67 1.66" stroke="#2f9e44" stroke-width="2" fill="none"></path></g><g stroke-linecap="round" transform="translate(183.3333333333344 384.44444444444457) rotate(0 17.77777777777783 18.8888888888888)"><path d="M16.4 -0.01 C19.97 -0.44, 25.52 1.44, 28.56 3.85 C31.59 6.25, 33.79 10.5, 34.63 14.41 C35.47 18.32, 35.21 23.7, 33.59 27.33 C31.98 30.95, 28.43 34.56, 24.95 36.14 C21.47 37.72, 16.41 37.94, 12.73 36.79 C9.05 35.64, 5.01 32.65, 2.87 29.25 C0.72 25.84, -0.65 20.43, -0.14 16.36 C0.38 12.3, 3.06 7.54, 5.95 4.85 C8.85 2.17, 15.34 0.93, 17.22 0.23 C19.1 -0.46, 17.25 0.46, 17.23 0.7 M16.71 -0.17 C20.48 -0.76, 25.78 0.87, 28.7 3.33 C31.61 5.8, 33.4 10.67, 34.22 14.64 C35.05 18.61, 35.22 23.53, 33.64 27.16 C32.06 30.78, 28.26 34.7, 24.75 36.37 C21.25 38.04, 16.29 38.35, 12.6 37.17 C8.92 35.99, 4.64 32.72, 2.64 29.29 C0.64 25.85, 0.15 20.48, 0.59 16.54 C1.04 12.6, 2.64 8.49, 5.3 5.66 C7.97 2.84, 14.69 0.55, 16.59 -0.44 C18.48 -1.42, 16.66 -0.72, 16.66 -0.26" stroke="none" stroke-width="0" fill="#b2f2bb"></path><path d="M13.53 0.2 C17.04 -0.94, 22.12 0.05, 25.48 1.81 C28.85 3.57, 32.22 7.13, 33.73 10.77 C35.24 14.42, 35.55 19.64, 34.56 23.68 C33.58 27.72, 30.85 32.68, 27.81 35.03 C24.77 37.37, 20.17 38.21, 16.35 37.73 C12.52 37.24, 7.48 35.02, 4.85 32.11 C2.21 29.2, 0.82 24.36, 0.51 20.27 C0.2 16.17, 0.7 10.85, 2.98 7.54 C5.26 4.24, 12.28 1.68, 14.21 0.45 C16.14 -0.77, 14.44 -0.15, 14.57 0.19 M15.29 0.73 C18.79 -0.31, 23.66 0.49, 26.85 2.36 C30.03 4.24, 33.05 8.09, 34.38 12 C35.72 15.91, 36.13 22.04, 34.84 25.82 C33.54 29.59, 29.9 32.66, 26.63 34.64 C23.35 36.63, 18.82 38.44, 15.16 37.74 C11.51 37.04, 7.27 33.63, 4.68 30.44 C2.08 27.25, -0.42 22.49, -0.39 18.61 C-0.37 14.74, 2.22 10.13, 4.84 7.19 C7.47 4.26, 13.63 2.09, 15.36 0.99 C17.09 -0.11, 15.27 0.41, 15.23 0.61" stroke="#2f9e44" stroke-width="2" fill="none"></path></g><g stroke-linecap="round" transform="translate(184.44444444444503 441.11111111111086) rotate(0 17.77777777777783 18.8888888888888)"><path d="M15.61 0.56 C19.21 -0.08, 24.87 1.07, 28.03 3.3 C31.18 5.54, 33.57 10.11, 34.54 13.99 C35.52 17.87, 35.37 22.96, 33.88 26.56 C32.39 30.16, 28.98 33.78, 25.61 35.6 C22.24 37.42, 17.41 38.47, 13.66 37.48 C9.92 36.5, 5.36 33.02, 3.16 29.69 C0.96 26.36, 0.21 21.51, 0.46 17.5 C0.71 13.5, 2.05 8.59, 4.65 5.67 C7.24 2.75, 13.89 0.84, 16.01 -0.02 C18.13 -0.88, 17.24 0.11, 17.36 0.5 M16.21 -0.21 C19.77 -0.86, 24.78 1.07, 27.92 3.4 C31.06 5.73, 34.07 9.74, 35.06 13.76 C36.05 17.79, 35.43 23.93, 33.85 27.55 C32.27 31.18, 29.17 33.97, 25.58 35.51 C21.99 37.05, 16.08 37.7, 12.3 36.77 C8.53 35.83, 4.89 33.17, 2.93 29.89 C0.97 26.62, 0.17 21.23, 0.54 17.12 C0.92 13.01, 2.49 8.19, 5.17 5.23 C7.85 2.27, 14.66 0.26, 16.61 -0.63 C18.57 -1.51, 16.97 -0.61, 16.88 -0.08" stroke="none" stroke-width="0" fill="#b2f2bb"></path><path d="M13.08 0.63 C16.52 -0.62, 22.46 -0.28, 25.95 1.48 C29.44 3.24, 32.57 7.51, 34.02 11.21 C35.46 14.9, 35.71 19.85, 34.64 23.66 C33.57 27.47, 30.72 31.82, 27.62 34.08 C24.52 36.34, 19.74 37.57, 16.03 37.21 C12.32 36.86, 7.92 34.76, 5.34 31.92 C2.75 29.08, 0.85 24.14, 0.51 20.17 C0.17 16.2, 0.85 11.38, 3.31 8.09 C5.76 4.8, 13.14 1.76, 15.24 0.42 C17.35 -0.93, 15.92 -0.25, 15.94 0.05 M14.76 -0.52 C18.32 -1.2, 24.75 1.01, 27.96 3.36 C31.18 5.72, 32.96 9.73, 34.04 13.62 C35.11 17.52, 35.85 23.06, 34.41 26.73 C32.96 30.39, 28.86 33.72, 25.38 35.6 C21.89 37.47, 17.1 38.82, 13.49 37.98 C9.89 37.14, 5.93 33.9, 3.73 30.54 C1.54 27.19, 0.12 21.96, 0.32 17.83 C0.52 13.69, 2.52 8.72, 4.96 5.73 C7.4 2.74, 13.14 0.81, 14.97 -0.11 C16.8 -1.04, 15.83 -0.29, 15.95 0.17" stroke="#2f9e44" stroke-width="2" fill="none"></path></g><g stroke-linecap="round" transform="translate(184.44444444444503 494.44444444444434) rotate(0 17.77777777777783 18.8888888888888)"><path d="M18.63 0.13 C22.25 -0.02, 26.51 2.47, 29.27 5.14 C32.03 7.82, 34.59 12.28, 35.19 16.18 C35.8 20.08, 34.84 25.07, 32.9 28.55 C30.95 32.03, 27.17 35.79, 23.51 37.05 C19.86 38.31, 14.45 37.64, 10.96 36.09 C7.47 34.54, 4.38 31.26, 2.57 27.74 C0.75 24.21, -0.56 18.9, 0.07 14.95 C0.7 10.99, 3.12 6.49, 6.34 4.02 C9.55 1.55, 17.11 0.67, 19.36 0.14 C21.61 -0.39, 19.96 0.55, 19.85 0.84 M20.83 0.2 C24.47 0.64, 29.11 3.24, 31.57 6.47 C34.03 9.7, 35.56 15.56, 35.59 19.58 C35.62 23.6, 34.33 27.65, 31.73 30.59 C29.13 33.52, 23.85 36.39, 19.99 37.2 C16.13 38.02, 11.65 37.47, 8.56 35.48 C5.48 33.49, 2.74 29.14, 1.48 25.24 C0.21 21.34, -0.32 16, 0.97 12.09 C2.27 8.18, 5.83 3.81, 9.25 1.76 C12.67 -0.29, 19.61 -0.12, 21.48 -0.2 C23.34 -0.27, 20.61 0.86, 20.45 1.31" stroke="none" stroke-width="0" fill="#b2f2bb"></path><path d="M18.87 -0.44 C22.57 -0.54, 27.03 2.17, 29.75 4.9 C32.47 7.63, 34.69 11.98, 35.19 15.92 C35.68 19.86, 34.71 25.1, 32.72 28.53 C30.74 31.95, 26.86 35.15, 23.3 36.44 C19.74 37.74, 14.84 37.76, 11.37 36.3 C7.9 34.83, 4.33 31.17, 2.48 27.65 C0.64 24.12, -0.51 19.1, 0.3 15.17 C1.11 11.24, 4.23 6.66, 7.32 4.07 C10.41 1.49, 16.75 0.24, 18.85 -0.35 C20.96 -0.94, 19.98 0.08, 19.97 0.54 M18.39 0.45 C22 0.39, 25.63 2.23, 28.47 4.86 C31.31 7.49, 34.77 12.31, 35.44 16.21 C36.12 20.11, 34.54 24.74, 32.53 28.25 C30.53 31.75, 26.88 35.82, 23.42 37.24 C19.97 38.65, 15.24 38.28, 11.79 36.76 C8.34 35.23, 4.6 31.67, 2.73 28.09 C0.87 24.5, 0.07 19.22, 0.6 15.24 C1.12 11.26, 2.94 6.8, 5.88 4.19 C8.81 1.59, 16.24 0.15, 18.22 -0.38 C20.2 -0.91, 17.75 0.71, 17.75 1.01" stroke="#2f9e44" stroke-width="2" fill="none"></path></g><g stroke-linecap="round"><g transform="translate(216.6666666666672 91.11111111111063) rotate(0 71.66666666666674 63.33333333333337)"><path d="M-0.78 0.97 C22.75 21.94, 118.05 105.52, 142.23 126.44 M1.02 0.44 C24.8 21.53, 120.53 106.64, 144.36 127.87" stroke="#e03131" stroke-width="2" fill="none"></path></g></g><mask></mask><g stroke-linecap="round"><g transform="translate(39.324901631018065 204.97795067645552) rotate(0 72.08333333333326 -85.41666666666663)"><path d="M0.41 -0.65 C24.3 -29.22, 118.96 -143.43, 143.02 -171.85 M-0.83 1.62 C23.44 -26.79, 120.94 -142.23, 145.13 -170.85" stroke="#e03131" stroke-width="2" fill="none"></path></g></g><mask></mask><g stroke-linecap="round"><g transform="translate(42.380457186573494 174.14461734312226) rotate(0 70 111.66666666666663)"><path d="M0.5 -1.19 C23.73 35.73, 116.72 185.06, 139.97 222.52 M-0.69 0.8 C22.33 37.77, 115.69 186.27, 139 223.62" stroke="#2f9e44" stroke-width="2" fill="none"></path></g></g><mask></mask><g stroke-linecap="round"><g transform="translate(217.7777777777785 95.55555555555497) rotate(0 71.11111111111109 125)"><path d="M-0.87 -0.22 C22.64 41.4, 118.4 208.97, 142.22 250.85 M0.87 -1.38 C24.13 40.42, 117.89 207.4, 141.28 249.18" stroke="#e03131" stroke-width="2" fill="none"></path></g></g><mask></mask><g stroke-linecap="round"><g transform="translate(43.21379051990698 169.97795067645552) rotate(0 70.41666666666663 84.16666666666663)"><path d="M-0.34 -0.19 C23.37 28.05, 118.32 140.97, 141.92 168.98 M1.69 -1.33 C25.36 26.6, 118.37 138.81, 141.55 167.2" stroke="#2f9e44" stroke-width="2" fill="none"></path></g></g><mask></mask><g transform="translate(194.04712385324024 256.08906178756683) rotate(0 8.225000381469727 12.5)"><text x="0" y="0" font-family="Virgil, Segoe UI Emoji" font-size="20px" fill="#1e1e1e" text-anchor="start" style="white-space: pre;" direction="ltr" dominant-baseline="text-before-edge">...</text></g><g stroke-linecap="round" transform="translate(10 149.44444444444412) rotate(0 17.77777777777783 18.8888888888888)"><path d="M14.02 0.05 C17.62 -1.23, 22.8 -0.35, 26.14 1.49 C29.48 3.32, 32.54 7.28, 34.05 11.08 C35.56 14.88, 36.2 20.46, 35.18 24.31 C34.16 28.15, 31.1 31.93, 27.95 34.14 C24.79 36.35, 20.04 38, 16.25 37.57 C12.45 37.14, 7.92 34.42, 5.18 31.56 C2.44 28.71, 0.17 24.49, -0.19 20.44 C-0.55 16.39, 0.62 10.52, 3.02 7.27 C5.42 4.02, 12.34 2.1, 14.19 0.93 C16.04 -0.23, 14.17 0.02, 14.13 0.27 M20.05 0.86 C23.7 1.16, 29.34 3.84, 31.94 6.84 C34.54 9.84, 35.71 14.83, 35.67 18.84 C35.62 22.85, 34.04 27.66, 31.66 30.88 C29.28 34.09, 25.16 37.35, 21.39 38.13 C17.61 38.91, 12.3 37.6, 9.01 35.54 C5.72 33.49, 3.1 29.5, 1.64 25.78 C0.18 22.07, -0.8 17.14, 0.25 13.23 C1.3 9.32, 4.57 4.57, 7.94 2.31 C11.31 0.04, 18.25 -0.04, 20.46 -0.36 C22.68 -0.68, 21.29 -0.15, 21.23 0.37" stroke="none" stroke-width="0" fill="#b2f2bb"></path><path d="M13.93 0.65 C17.37 -0.5, 22.77 0.07, 26.08 1.94 C29.38 3.81, 32.38 8.14, 33.76 11.87 C35.15 15.6, 35.41 20.55, 34.39 24.31 C33.37 28.07, 30.72 32.27, 27.64 34.44 C24.56 36.61, 19.69 37.76, 15.91 37.32 C12.13 36.87, 7.67 34.7, 4.97 31.75 C2.27 28.8, -0.14 23.71, -0.28 19.64 C-0.43 15.57, 1.44 10.53, 4.1 7.34 C6.76 4.15, 13.54 1.63, 15.68 0.51 C17.83 -0.62, 17.03 0.26, 16.95 0.59 M18.29 0.61 C21.79 0.14, 25.99 1.09, 28.91 3.56 C31.83 6.03, 35.14 11.3, 35.79 15.42 C36.44 19.54, 34.86 24.75, 32.8 28.26 C30.74 31.77, 26.84 35.02, 23.43 36.48 C20.03 37.94, 15.77 38.31, 12.37 37.02 C8.96 35.73, 5.01 32.26, 3 28.73 C1 25.21, -0.31 19.78, 0.34 15.86 C0.99 11.93, 4.07 7.95, 6.91 5.19 C9.74 2.42, 15.46 -0.03, 17.36 -0.73 C19.26 -1.42, 18.19 0.7, 18.29 1.02" stroke="#2f9e44" stroke-width="2" fill="none"></path></g><g stroke-linecap="round" transform="translate(10 202.77777777777806) rotate(0 17.77777777777783 18.8888888888888)"><path d="M21.51 -0.15 C25.03 0.36, 29.1 3.44, 31.5 6.67 C33.89 9.89, 35.88 15.17, 35.89 19.18 C35.91 23.19, 34.06 27.66, 31.6 30.7 C29.13 33.74, 24.89 36.74, 21.12 37.42 C17.36 38.11, 12.4 36.77, 9.01 34.78 C5.62 32.8, 2.17 29.34, 0.79 25.51 C-0.6 21.69, -0.72 15.59, 0.7 11.83 C2.12 8.07, 5.89 4.91, 9.3 2.93 C12.71 0.94, 19.17 0.25, 21.17 -0.08 C23.17 -0.41, 21.28 0.51, 21.31 0.96 M22.79 0.86 C26.47 1.49, 30.14 4.78, 32.28 8.01 C34.42 11.25, 35.86 16.16, 35.62 20.27 C35.38 24.39, 33.52 29.78, 30.83 32.7 C28.15 35.63, 23.28 37.5, 19.53 37.84 C15.77 38.18, 11.57 36.93, 8.31 34.73 C5.04 32.53, 1.2 28.62, -0.05 24.64 C-1.3 20.65, -0.84 14.73, 0.81 10.84 C2.46 6.95, 6.18 3.06, 9.84 1.3 C13.5 -0.45, 20.77 0.27, 22.76 0.32 C24.76 0.37, 21.88 1.33, 21.81 1.59" stroke="none" stroke-width="0" fill="#ffc9c9"></path><path d="M20.56 0.03 C24.1 0.37, 28.25 3.61, 30.69 6.64 C33.13 9.67, 34.99 14.25, 35.2 18.2 C35.41 22.15, 34.21 27.17, 31.96 30.32 C29.71 33.47, 25.45 36.24, 21.71 37.11 C17.97 37.98, 13.01 37.46, 9.54 35.55 C6.07 33.65, 2.28 29.47, 0.92 25.67 C-0.44 21.88, 0.02 16.55, 1.37 12.78 C2.72 9.01, 5.67 5.1, 9.04 3.06 C12.4 1.01, 19.5 0.79, 21.56 0.49 C23.62 0.19, 21.54 0.91, 21.4 1.26 M19.65 -0.6 C23.24 -0.5, 28.65 2.84, 31.21 5.91 C33.78 8.99, 35.01 13.83, 35.05 17.86 C35.09 21.88, 33.56 26.75, 31.45 30.04 C29.34 33.32, 25.92 36.57, 22.4 37.56 C18.89 38.56, 13.84 37.86, 10.37 36.01 C6.89 34.15, 3.06 30.1, 1.58 26.46 C0.09 22.81, 0.42 18.16, 1.45 14.15 C2.48 10.15, 4.58 4.64, 7.75 2.41 C10.93 0.18, 18.44 1.2, 20.51 0.76 C22.57 0.32, 20.42 -0.37, 20.15 -0.25" stroke="#e03131" stroke-width="2" fill="none"></path></g><g stroke-linecap="round"><g transform="translate(39.324901631018065 274.9779506764555) rotate(0 73.75 -95)"><path d="M-1.2 -0.2 C23.68 -31.86, 123.65 -158.33, 148.35 -189.94 M0.38 -1.35 C25.25 -32.8, 123.58 -157.19, 147.84 -188.38" stroke="#1971c2" stroke-width="2" fill="none"></path></g></g><mask></mask><g stroke-linecap="round" transform="translate(10.000000000000455 263.88888888888846) rotate(0 17.77777777777783 18.8888888888888)"><path d="M13.48 0.34 C16.92 -0.72, 22.45 0.3, 25.92 2.03 C29.4 3.77, 32.77 7.09, 34.33 10.75 C35.89 14.42, 36.34 20.11, 35.28 24.01 C34.22 27.92, 31.24 31.85, 27.97 34.18 C24.7 36.51, 19.58 38.44, 15.68 38 C11.77 37.57, 7.11 34.45, 4.55 31.57 C1.99 28.68, 0.54 24.72, 0.31 20.68 C0.09 16.63, 0.83 10.69, 3.19 7.3 C5.55 3.92, 12.26 1.46, 14.49 0.38 C16.71 -0.71, 16.36 0.56, 16.55 0.79 M21.51 0.61 C25 1.12, 29.46 3.99, 31.85 7.25 C34.23 10.51, 35.97 16.09, 35.82 20.15 C35.67 24.22, 33.44 28.7, 30.94 31.63 C28.44 34.57, 24.68 37.12, 20.81 37.77 C16.93 38.41, 11.12 37.72, 7.68 35.5 C4.24 33.28, 1.26 28.48, 0.16 24.45 C-0.93 20.41, -0.53 15.03, 1.11 11.29 C2.76 7.55, 6.69 3.71, 10.04 2.01 C13.39 0.3, 19.21 1.35, 21.2 1.05 C23.2 0.76, 22.1 -0.04, 22.03 0.25" stroke="none" stroke-width="0" fill="#a5d8ff"></path><path d="M19.14 0.32 C22.69 0.45, 27.4 2.67, 30.18 5.47 C32.96 8.27, 35.4 13.11, 35.81 17.13 C36.22 21.16, 34.87 26.28, 32.64 29.64 C30.41 33, 26.25 36.27, 22.43 37.29 C18.61 38.32, 13.15 37.6, 9.74 35.81 C6.33 34.02, 3.42 30.2, 1.99 26.57 C0.57 22.95, 0.13 17.9, 1.17 14.05 C2.21 10.19, 5.08 5.66, 8.25 3.43 C11.42 1.19, 18.02 1.01, 20.17 0.63 C22.33 0.24, 21.13 0.8, 21.16 1.12 M21.88 0.41 C25.41 1.08, 29.05 4.11, 31.23 7.26 C33.4 10.42, 34.87 15.24, 34.93 19.31 C34.98 23.39, 33.89 28.64, 31.56 31.72 C29.22 34.8, 24.74 37.23, 20.91 37.78 C17.08 38.33, 11.79 37.07, 8.58 35.02 C5.37 32.97, 2.89 29.46, 1.63 25.49 C0.37 21.53, -0.37 14.99, 1.03 11.22 C2.43 7.46, 6.58 4.85, 10.03 2.92 C13.48 0.99, 19.99 0.08, 21.74 -0.36 C23.49 -0.81, 20.77 -0.11, 20.52 0.24" stroke="#1971c2" stroke-width="2" fill="none"></path></g><g stroke-linecap="round"><g transform="translate(40.15823496435155 354.14461734312226) rotate(0 71.85185185185185 77.03703703703707)"><path d="M1.09 0.44 C25.23 26.16, 121.08 128.51, 144.8 153.95 M0.2 -0.38 C24.28 25.56, 120.71 129.71, 144.42 155.42" stroke="#f08c00" stroke-width="2" fill="none"></path></g></g><mask></mask><g stroke-linecap="round" transform="translate(11.547123853241146 325.2557284542336) rotate(0 17.77777777777783 18.8888888888888)"><path d="M16.07 -0.09 C19.69 -0.61, 25.33 1.4, 28.56 3.73 C31.79 6.06, 34.57 9.95, 35.44 13.87 C36.31 17.79, 35.56 23.5, 33.78 27.25 C31.99 31.01, 28.23 34.76, 24.71 36.39 C21.2 38.02, 16.23 38.19, 12.7 37.02 C9.17 35.84, 5.63 32.67, 3.53 29.36 C1.44 26.04, -0.17 21.16, 0.14 17.14 C0.45 13.12, 2.43 8.15, 5.39 5.25 C8.35 2.35, 15.74 0.5, 17.9 -0.26 C20.05 -1.03, 18.41 0.35, 18.31 0.66 M18.14 -0.21 C21.6 -0.53, 25.95 1.84, 28.74 4.36 C31.52 6.89, 33.98 11, 34.85 14.94 C35.73 18.88, 35.72 24.41, 33.99 28 C32.26 31.59, 28.23 35.11, 24.46 36.51 C20.69 37.91, 14.98 37.77, 11.4 36.41 C7.81 35.06, 4.75 31.86, 2.93 28.38 C1.11 24.91, -0.18 19.51, 0.48 15.55 C1.14 11.59, 4.08 7.34, 6.89 4.64 C9.7 1.94, 15.5 0.13, 17.35 -0.66 C19.2 -1.45, 17.89 -0.42, 17.99 -0.09" stroke="none" stroke-width="0" fill="#ffec99"></path><path d="M17.12 -0.39 C20.63 -0.81, 24.99 1.3, 28.02 3.77 C31.06 6.24, 34.34 10.51, 35.31 14.43 C36.27 18.35, 35.56 23.63, 33.82 27.3 C32.07 30.97, 28.27 34.85, 24.84 36.45 C21.41 38.05, 16.79 38, 13.23 36.9 C9.66 35.8, 5.59 33.22, 3.46 29.85 C1.32 26.49, 0.13 20.74, 0.42 16.71 C0.71 12.68, 2.37 8.5, 5.2 5.67 C8.03 2.84, 15.41 0.62, 17.42 -0.27 C19.43 -1.15, 17.36 0.02, 17.25 0.36 M19.48 0.62 C23.16 0.68, 27.44 2.88, 30.12 5.68 C32.81 8.48, 35.25 13.5, 35.57 17.43 C35.89 21.35, 34.27 25.82, 32.03 29.22 C29.79 32.62, 25.77 36.64, 22.11 37.81 C18.45 38.97, 13.36 37.97, 10.05 36.23 C6.74 34.49, 3.84 31.1, 2.25 27.38 C0.66 23.65, -0.34 17.85, 0.53 13.89 C1.41 9.92, 4.38 5.93, 7.49 3.58 C10.61 1.24, 17.13 0.42, 19.22 -0.19 C21.3 -0.8, 19.9 -0.54, 19.98 -0.06" stroke="#f08c00" stroke-width="2" fill="none"></path></g><g stroke-linecap="round"><g transform="translate(215.55555555555634 33.3333333333328) rotate(0 72.77777777777771 64.44444444444446)"><path d="M0.55 0.11 C24.8 21.63, 121.54 107.03, 145.82 128.38 M-0.63 -0.87 C23.46 20.86, 120.6 107.98, 145.01 129.65" stroke="#2f9e44" stroke-width="2" fill="none"></path></g></g><mask></mask><g stroke-linecap="round"><g transform="translate(43.49156829768458 158.72795067645552) rotate(0 70 -36.66666666666663)"><path d="M1.16 -0.96 C24.7 -13.11, 117.91 -60.12, 141.1 -72.16 M0.31 1.15 C23.8 -11.37, 117.49 -61.51, 140.74 -73.67" stroke="#2f9e44" stroke-width="2" fill="none"></path></g></g><mask></mask><g stroke-linecap="round"><g transform="translate(217.7777777777785 89.99999999999955) rotate(0 70 95)"><path d="M-0.74 -0.26 C22.79 31.4, 117.15 157.51, 140.62 189.27 M1.08 -1.44 C24.55 30.42, 116.95 158.22, 140 190.42" stroke="#e03131" stroke-width="2" fill="none"></path></g></g><mask></mask><g stroke-linecap="round"><g transform="translate(44.324901631018065 166.64461734312204) rotate(0 68.75 -12.083333333333258)"><path d="M0.45 -1.14 C23.31 -5.21, 113.92 -20.15, 136.85 -24.02 M-0.78 0.88 C22.51 -3.02, 116.16 -18.4, 139.22 -22.4" stroke="#2f9e44" stroke-width="2" fill="none"></path></g></g><mask></mask><g stroke-linecap="round"><g transform="translate(217.7777777777785 35.555555555554974) rotate(0 71.11111111111109 91.1111111111112)"><path d="M0.09 -0.59 C23.84 30.11, 119.2 152.81, 143.01 183.28 M-1.32 1.71 C22.29 32.19, 118.49 151.41, 142.48 181.72" stroke="#2f9e44" stroke-width="2" fill="none"></path></g></g><mask></mask><g stroke-linecap="round" transform="translate(361.1111111111111 149.99999999999932) rotate(0 17.77777777777783 18.8888888888888)"><path d="M19.91 0.28 C23.6 0.54, 28.34 3.23, 31 6.21 C33.67 9.19, 35.83 14.14, 35.89 18.16 C35.96 22.17, 33.69 27.05, 31.38 30.3 C29.08 33.55, 25.76 36.7, 22.08 37.65 C18.39 38.6, 12.72 37.98, 9.27 36.02 C5.82 34.06, 2.76 29.67, 1.39 25.89 C0.02 22.12, -0.04 17.12, 1.05 13.35 C2.13 9.57, 4.64 5.5, 7.91 3.27 C11.18 1.03, 18.58 0.42, 20.65 -0.09 C22.72 -0.6, 20.34 -0.21, 20.34 0.21 M15.58 -0.52 C19.14 -1.39, 24.09 0.85, 27.18 3.12 C30.27 5.4, 32.92 9.43, 34.12 13.13 C35.32 16.83, 35.61 21.68, 34.37 25.33 C33.13 28.98, 30.07 32.94, 26.66 35.03 C23.25 37.13, 17.78 38.72, 13.9 37.89 C10.03 37.06, 5.68 33.25, 3.4 30.03 C1.11 26.82, 0.13 22.55, 0.18 18.57 C0.24 14.59, 1.25 9.27, 3.72 6.13 C6.19 2.99, 13.02 0.58, 15 -0.26 C16.99 -1.1, 15.59 0.77, 15.61 1.07" stroke="none" stroke-width="0" fill="#b2f2bb"></path><path d="M14.3 0.78 C17.76 -0.23, 23.26 0.04, 26.54 1.98 C29.81 3.92, 32.66 8.51, 33.95 12.41 C35.25 16.32, 35.52 21.63, 34.31 25.41 C33.1 29.19, 29.87 33.08, 26.67 35.1 C23.48 37.12, 18.95 38.18, 15.14 37.53 C11.34 36.87, 6.37 34.3, 3.83 31.18 C1.29 28.07, -0.12 22.79, -0.09 18.82 C-0.05 14.84, 1.45 10.43, 4.05 7.34 C6.65 4.25, 13.26 1.43, 15.51 0.29 C17.76 -0.86, 17.48 0.23, 17.55 0.47 M15.47 0.42 C19.26 -0.26, 25.03 0.92, 28.19 3.19 C31.35 5.46, 33.4 10.3, 34.43 14.06 C35.47 17.81, 35.73 22.04, 34.41 25.7 C33.09 29.37, 29.97 34.14, 26.51 36.03 C23.05 37.93, 17.5 38.07, 13.64 37.05 C9.77 36.03, 5.67 33.19, 3.34 29.92 C1.01 26.64, -0.51 21.33, -0.35 17.39 C-0.18 13.44, 1.77 9.2, 4.33 6.25 C6.9 3.29, 13.25 0.6, 15.04 -0.35 C16.83 -1.31, 14.86 0.1, 15.06 0.5" stroke="#2f9e44" stroke-width="2" fill="none"></path></g><g stroke-linecap="round" transform="translate(361.1111111111111 203.33333333333326) rotate(0 17.77777777777783 18.8888888888888)"><path d="M18.65 0.1 C22.37 0.02, 27.42 2.33, 30.13 5.04 C32.84 7.74, 34.39 12.26, 34.91 16.31 C35.43 20.36, 35.25 25.84, 33.24 29.34 C31.23 32.83, 26.55 36.15, 22.85 37.28 C19.15 38.41, 14.47 37.72, 11.03 36.13 C7.6 34.55, 4.06 31.27, 2.24 27.77 C0.41 24.27, -0.72 19.16, 0.09 15.13 C0.91 11.1, 4.04 6.2, 7.14 3.61 C10.23 1.02, 16.5 0.07, 18.64 -0.39 C20.77 -0.85, 19.96 0.45, 19.95 0.84 M21.72 0.82 C25.13 1.58, 29.02 4.57, 31.33 7.64 C33.63 10.7, 35.56 15.3, 35.55 19.22 C35.54 23.14, 33.89 28.02, 31.26 31.16 C28.63 34.3, 23.68 37.56, 19.77 38.07 C15.86 38.57, 10.91 36.4, 7.79 34.18 C4.66 31.96, 2.23 28.53, 1.04 24.74 C-0.15 20.95, -0.76 15.28, 0.64 11.44 C2.04 7.61, 5.87 3.47, 9.43 1.71 C13 -0.05, 20.06 1.14, 22.03 0.89 C23.99 0.65, 21.3 0.11, 21.22 0.24" stroke="none" stroke-width="0" fill="#b2f2bb"></path><path d="M17.48 -0.48 C21.05 -0.84, 25.58 1.68, 28.5 4.35 C31.42 7.01, 34.23 11.57, 35.01 15.51 C35.79 19.45, 34.96 24.48, 33.2 27.99 C31.44 31.49, 28.06 35.07, 24.45 36.54 C20.84 38.01, 15.22 38.14, 11.55 36.78 C7.88 35.42, 4.33 31.78, 2.44 28.38 C0.55 24.98, -0.34 20.32, 0.2 16.39 C0.74 12.46, 2.65 7.53, 5.67 4.81 C8.68 2.09, 16.13 0.86, 18.29 0.09 C20.44 -0.68, 18.67 -0.05, 18.6 0.18 M18.66 0.13 C22.25 -0.01, 26.16 2.7, 28.98 5.21 C31.81 7.72, 34.79 11.27, 35.59 15.2 C36.38 19.13, 35.77 25.25, 33.77 28.8 C31.76 32.34, 27.32 35.21, 23.57 36.46 C19.83 37.7, 14.92 37.71, 11.31 36.25 C7.7 34.79, 3.84 31.11, 1.93 27.68 C0.02 24.26, -0.81 19.66, -0.15 15.68 C0.51 11.7, 2.98 6.43, 5.89 3.81 C8.81 1.2, 15.27 0.55, 17.33 -0.01 C19.4 -0.57, 18.22 0.25, 18.31 0.46" stroke="#2f9e44" stroke-width="2" fill="none"></path></g><g stroke-linecap="round" transform="translate(361.111111111112 264.44444444444366) rotate(0 17.77777777777783 18.8888888888888)"><path d="M19.13 0.12 C22.66 0.06, 26.67 2.22, 29.46 5.03 C32.25 7.84, 35.41 12.88, 35.89 16.98 C36.37 21.08, 34.52 26.32, 32.36 29.62 C30.2 32.92, 26.51 35.63, 22.95 36.76 C19.39 37.89, 14.55 37.9, 10.99 36.39 C7.43 34.88, 3.3 31.4, 1.58 27.71 C-0.14 24.02, -0.19 18.33, 0.67 14.26 C1.52 10.2, 3.54 5.63, 6.73 3.32 C9.92 1.02, 17.65 0.91, 19.79 0.45 C21.93 -0.01, 19.6 0.26, 19.57 0.57 M12.91 0.93 C16.33 -0.38, 21.94 -0.13, 25.5 1.5 C29.07 3.13, 32.79 6.9, 34.28 10.73 C35.78 14.55, 35.62 20.63, 34.45 24.47 C33.28 28.32, 30.3 31.58, 27.25 33.79 C24.21 36, 20 38.08, 16.18 37.74 C12.37 37.4, 7.08 34.73, 4.38 31.75 C1.69 28.76, 0.1 23.72, 0.02 19.81 C-0.07 15.91, 1.67 11.63, 3.86 8.33 C6.05 5.04, 11.51 1.36, 13.17 0.03 C14.84 -1.29, 13.71 -0.02, 13.86 0.37" stroke="none" stroke-width="0" fill="#b2f2bb"></path><path d="M21.42 0.64 C24.96 1.41, 29.5 4.62, 31.83 7.83 C34.16 11.05, 35.55 15.93, 35.41 19.94 C35.27 23.95, 33.68 28.92, 31.01 31.88 C28.34 34.84, 23.25 37.27, 19.39 37.69 C15.54 38.12, 11.01 36.59, 7.9 34.43 C4.79 32.28, 1.87 28.57, 0.72 24.76 C-0.43 20.95, -0.54 15.35, 1 11.57 C2.54 7.8, 6.43 3.95, 9.96 2.09 C13.49 0.23, 20.1 0.64, 22.19 0.41 C24.28 0.19, 22.55 0.4, 22.51 0.72 M19.11 0.76 C22.66 0.76, 27.87 2.23, 30.72 5.05 C33.56 7.87, 35.94 13.6, 36.18 17.69 C36.41 21.78, 34.5 26.4, 32.14 29.59 C29.78 32.79, 25.75 35.87, 22.02 36.85 C18.29 37.82, 13.25 37.1, 9.77 35.46 C6.3 33.81, 2.78 30.68, 1.16 27 C-0.46 23.32, -0.93 17.32, 0.05 13.37 C1.04 9.43, 3.78 5.53, 7.08 3.33 C10.37 1.13, 17.78 0.75, 19.82 0.17 C21.87 -0.42, 19.39 -0.43, 19.37 -0.2" stroke="#2f9e44" stroke-width="2" fill="none"></path></g><g stroke-linecap="round" transform="translate(361.1111111111111 327.7777777777776) rotate(0 17.77777777777783 18.8888888888888)"><path d="M17.99 -0.08 C21.63 -0.13, 27.34 2.43, 30.2 5.23 C33.05 8.03, 34.66 12.81, 35.1 16.73 C35.55 20.65, 34.8 25.38, 32.85 28.76 C30.9 32.14, 27.1 35.7, 23.41 37.02 C19.72 38.34, 14.25 38.29, 10.72 36.68 C7.19 35.07, 4.02 31.08, 2.24 27.37 C0.45 23.66, -0.85 18.28, 0 14.44 C0.85 10.6, 4.17 6.71, 7.34 4.32 C10.51 1.94, 16.82 0.7, 19.02 0.13 C21.23 -0.44, 20.61 0.58, 20.56 0.91 M20.16 -0.2 C23.91 -0.05, 28.73 2.64, 31.22 5.77 C33.71 8.91, 35.08 14.6, 35.1 18.59 C35.11 22.58, 33.53 26.59, 31.31 29.73 C29.09 32.86, 25.49 36.47, 21.75 37.4 C18.01 38.33, 12.26 37.26, 8.85 35.29 C5.44 33.32, 2.55 29.19, 1.3 25.58 C0.05 21.97, 0.23 17.49, 1.36 13.63 C2.48 9.76, 4.86 4.72, 8.05 2.38 C11.25 0.04, 18.48 -0.09, 20.53 -0.41 C22.58 -0.72, 20.36 0.13, 20.35 0.5" stroke="none" stroke-width="0" fill="#b2f2bb"></path><path d="M13.34 0.74 C16.86 -0.44, 22.03 0.12, 25.53 1.88 C29.04 3.64, 32.89 7.57, 34.37 11.3 C35.85 15.02, 35.55 20.38, 34.42 24.22 C33.29 28.07, 30.66 32.06, 27.56 34.38 C24.46 36.7, 19.66 38.51, 15.81 38.14 C11.97 37.77, 7.07 35.12, 4.47 32.13 C1.86 29.14, 0.38 24.31, 0.18 20.2 C-0.02 16.1, 0.92 10.87, 3.26 7.48 C5.6 4.1, 12.18 1.08, 14.2 -0.09 C16.23 -1.26, 15.28 -0.01, 15.41 0.45 M18.83 -0.56 C22.63 -0.7, 27.73 2.48, 30.47 5.27 C33.21 8.06, 34.93 12.28, 35.28 16.18 C35.62 20.09, 34.63 25.35, 32.54 28.72 C30.45 32.09, 26.42 35.1, 22.75 36.41 C19.08 37.72, 14.07 38.14, 10.52 36.59 C6.96 35.04, 3.2 30.75, 1.42 27.11 C-0.36 23.48, -1.17 18.64, -0.19 14.79 C0.79 10.93, 4.21 6.55, 7.32 3.98 C10.44 1.41, 16.56 0.03, 18.5 -0.65 C20.44 -1.32, 18.92 -0.44, 18.93 -0.07" stroke="#2f9e44" stroke-width="2" fill="none"></path></g><g stroke-linecap="round"><g transform="translate(215.55555555555634 36.66666666666606) rotate(0 72.22222222222217 122.22222222222229)"><path d="M-0.9 -0.05 C23.15 40.8, 120.14 204.85, 144.23 245.61 M0.83 -1.13 C24.7 39.38, 118.96 202.93, 143.17 244.1" stroke="#2f9e44" stroke-width="2" fill="none"></path></g></g><mask></mask><g stroke-linecap="round"><g transform="translate(215.55555555555634 36.66666666666606) rotate(0 73.33333333333326 154.44444444444446)"><path d="M-0.02 1 C24.45 52.52, 121.47 257.09, 146.05 308.35 M-1.48 0.48 C23.44 52.22, 123.67 258.07, 148.44 309.6" stroke="#2f9e44" stroke-width="2" fill="none"></path></g></g><mask></mask><g stroke-linecap="round"><g transform="translate(221.11111111111177 88.88888888888823) rotate(0 69.44444444444446 41.66666666666674)"><path d="M-0.1 0.5 C23.04 14.5, 114.81 70.07, 138.15 84.07 M-1.61 -0.28 C21.98 13.37, 116.92 68.5, 140.47 82.33" stroke="#e03131" stroke-width="2" fill="none"></path></g></g><mask></mask><g stroke-linecap="round"><g transform="translate(216.6666666666672 148.88888888888823) rotate(0 70.55555555555566 10.555555555555657)"><path d="M0.23 0.28 C23.46 3.77, 116.74 18.66, 140.27 22.07 M-1.11 -0.62 C22.43 3.07, 118.9 16.7, 142.55 20.45" stroke="#1971c2" stroke-width="2" fill="none"></path></g></g><mask></mask><g stroke-linecap="round"><g transform="translate(216.6666666666672 145.55555555555497) rotate(0 70.55555555555566 38.33333333333337)"><path d="M-0.62 -0.92 C22.77 11.86, 116.59 63.78, 140.32 76.74 M1.26 1.21 C25.02 14.19, 119.26 65.48, 142.62 78.32" stroke="#1971c2" stroke-width="2" fill="none"></path></g></g><mask></mask><g stroke-linecap="round"><g transform="translate(215.55555555555634 147.77777777777715) rotate(0 72.22222222222217 65.00000000000011)"><path d="M-0.11 0.08 C23.93 22, 121.07 109.06, 145.22 130.91 M-1.63 -0.92 C22.23 20.72, 120.38 107.53, 144.67 129.26" stroke="#1971c2" stroke-width="2" fill="none"></path></g></g><mask></mask><g stroke-linecap="round"><g transform="translate(220.00000000000068 153.3333333333328) rotate(0 70 94.44444444444446)"><path d="M-0.29 -0.23 C22.98 31.32, 116.26 156.72, 139.7 188.42 M1.77 -1.4 C24.84 30.4, 115.59 158.11, 138.59 189.71" stroke="#1971c2" stroke-width="2" fill="none"></path></g></g><mask></mask><g stroke-linecap="round"><g transform="translate(59.880457186573494 220.81128400978878) rotate(0 62.5 116.66666666666663)"><path d="M0.33 1.07 C21.13 39.9, 104.85 193.57, 125.52 232.46 M-0.96 0.59 C19.67 39.59, 104.15 194.87, 124.85 233.54" stroke="#2f9e44" stroke-width="2" fill="none"></path></g></g><mask></mask><g stroke-linecap="round"><g transform="translate(41.824901631018065 181.64461734312204) rotate(0 71.66666666666663 163.75)"><path d="M0.71 0.55 C24.46 55.03, 118.62 273.29, 142.35 327.83 M-0.38 -0.21 C23.75 53.82, 120.78 270.97, 144.54 325.88" stroke="#2f9e44" stroke-width="2" fill="none"></path></g></g><mask></mask><g transform="translate(266.2194440629753 350.8333333333328) rotate(0 8.225000381469727 12.5)"><text x="0" y="0" font-family="Virgil, Segoe UI Emoji" font-size="20px" fill="#1e1e1e" text-anchor="start" style="white-space: pre;" direction="ltr" dominant-baseline="text-before-edge">...</text></g><g stroke-linecap="round"><g transform="translate(43.49156829768458 220.81128400978878) rotate(0 69.16666666666674 60.83333333333337)"><path d="M0.71 -0.71 C23.96 19.61, 115.58 101.29, 138.4 121.75 M-0.38 1.53 C22.82 22.07, 114.07 103.6, 137.48 123.33" stroke="#e03131" stroke-width="2" fill="none"></path></g></g><mask></mask><g stroke-linecap="round"><g transform="translate(41.824901631018065 230.81128400978878) rotate(0 70.83333333333326 81.66666666666674)"><path d="M-0.51 0.17 C22.8 27.56, 116.96 136.53, 140.8 163.75 M1.43 -0.79 C25.02 26.28, 119.59 134.24, 143.06 161.85" stroke="#e03131" stroke-width="2" fill="none"></path></g></g><mask></mask><g stroke-linecap="round"><g transform="translate(36.824901631018065 235.81128400978878) rotate(0 74.58333333333326 109.16666666666674)"><path d="M0.49 -0.37 C25.33 36, 124.79 181.44, 149.5 217.87 M-0.72 -1.61 C23.96 34.96, 123.98 182.32, 148.73 219.16" stroke="#e03131" stroke-width="2" fill="none"></path></g></g><mask></mask><g stroke-linecap="round"><g transform="translate(185.15823496435132 505.8112840097888) rotate(0 -72.91666666666663 -135.83333333333326)"><path d="M1.04 0.76 C-23.32 -44.52, -121.69 -226.26, -146.33 -271.84 M0.13 0.12 C-24.41 -44.97, -123.44 -225.05, -147.54 -270.39" stroke="#e03131" stroke-width="2" fill="none"></path></g></g><mask></mask><g stroke-linecap="round"><g transform="translate(38.49156829768458 268.3112840097888) rotate(0 72.91666666666674 -119.16666666666663)"><path d="M1.1 -1.12 C25.34 -40.85, 122.49 -198.56, 146.55 -238.12 M0.21 0.9 C24.26 -39.24, 121.93 -200.44, 145.97 -240.13" stroke="#1971c2" stroke-width="2" fill="none"></path></g></g><mask></mask><g stroke-linecap="round"><g transform="translate(46.824901631018065 276.64461734312226) rotate(0 67.5 -39.16666666666674)"><path d="M-0.02 0.57 C22.2 -12.52, 111.8 -64.28, 134.48 -77.55 M-1.49 -0.17 C20.43 -13.68, 110.36 -66.27, 133.26 -79.26" stroke="#1971c2" stroke-width="2" fill="none"></path></g></g><mask></mask><g stroke-linecap="round"><g transform="translate(45.15823496435155 279.14461734312226) rotate(0 68.74999999999989 33.33333333333326)"><path d="M0.21 -0.11 C23.27 10.85, 115.79 55.12, 138.54 66.35 M-1.13 -1.21 C21.84 9.87, 114.76 56.64, 138.14 67.71" stroke="#1971c2" stroke-width="2" fill="none"></path></g></g><mask></mask><g stroke-linecap="round"><g transform="translate(45.99156829768458 272.4779506764555) rotate(0 70 -62.91666666666663)"><path d="M-1.13 0.49 C22.2 -20.86, 117.27 -106.01, 140.91 -127.03 M0.48 -0.3 C23.65 -21.03, 117.14 -105.47, 140.43 -126.12" stroke="#1971c2" stroke-width="2" fill="none"></path></g></g><mask></mask><g stroke-linecap="round"><g transform="translate(46.824901631018065 286.64461734312226) rotate(0 70.83333333333326 59.16666666666663)"><path d="M-0.97 0.81 C23 20.21, 118.89 97.69, 142.72 117.22 M0.72 0.19 C24.72 19.62, 118.87 98.35, 142.32 118.17" stroke="#1971c2" stroke-width="2" fill="none"></path></g></g><mask></mask><g stroke-linecap="round"><g transform="translate(45.15823496435155 289.14461734312226) rotate(0 72.91666666666652 83.75)"><path d="M-0.96 0.67 C23.46 28.34, 121.14 138.84, 145.67 166.66 M0.74 -0.03 C25.06 27.71, 120.48 139.59, 144.64 167.76" stroke="#1971c2" stroke-width="2" fill="none"></path></g></g><mask></mask><g stroke-linecap="round"><g transform="translate(45.15823496435155 291.64461734312226) rotate(0 72.08333333333326 110.83333333333326)"><path d="M-0.41 0.24 C23.55 36.95, 119.88 184.04, 143.84 220.76 M1.57 -0.68 C25.34 36.11, 118.69 184.83, 142.72 221.82" stroke="#1971c2" stroke-width="2" fill="none"></path></g></g><mask></mask><g stroke-linecap="round"><g transform="translate(35.52860533472176 324.6075803060851) rotate(0 73.98148148148141 -146.06481481481478)"><path d="M0.95 0.82 C25.62 -47.63, 123.84 -242.56, 148.29 -291.54 M-0.01 0.21 C24.5 -48.52, 123.06 -244.62, 147.51 -293.35" stroke="#f08c00" stroke-width="2" fill="none"></path></g></g><mask></mask><g stroke-linecap="round"><g transform="translate(35.15823496435155 329.9779506764555) rotate(0 76.24999999999989 -122.5)"><path d="M-0.33 0.81 C24.82 -39.84, 126.66 -204.15, 151.96 -245.09 M1.7 0.18 C26.55 -40.16, 125.38 -203, 150.74 -243.6" stroke="#f08c00" stroke-width="2" fill="none"></path></g></g><mask></mask><g stroke-linecap="round"><g transform="translate(37.65823496435155 334.14461734312226) rotate(0 75.83333333333326 -95.41666666666674)"><path d="M-0.45 0.17 C24.86 -31.77, 126.08 -159.02, 151.63 -190.85 M1.52 -0.79 C26.68 -32.59, 125.46 -157.88, 150.66 -189.31" stroke="#f08c00" stroke-width="2" fill="none"></path></g></g><mask></mask><g stroke-linecap="round"><g transform="translate(41.82490163101829 332.29276549127053) rotate(0 70.83333333333314 -67.82407407407413)"><path d="M-0.09 0.23 C23.29 -22.56, 117.31 -113.07, 140.88 -135.78 M-1.59 -0.7 C22.11 -23.37, 119.52 -111.95, 143.18 -134.31" stroke="#f08c00" stroke-width="2" fill="none"></path></g></g><mask></mask><g stroke-linecap="round"><g transform="translate(44.97304977916633 341.7372099357149) rotate(0 68.74999999999977 3.564814814814781)"><path d="M-0.83 0.89 C21.92 2.11, 114.32 5.31, 137.37 6.33 M0.94 0.32 C23.43 1.75, 113.72 6.12, 136.36 7.44" stroke="#f08c00" stroke-width="2" fill="none"></path></g></g><mask></mask><g stroke-linecap="round"><g transform="translate(45.15823496435155 348.3112840097888) rotate(0 72.08333333333326 24.166666666666742)"><path d="M0.07 0.94 C24.1 8.89, 120.58 40.46, 144.79 48.3 M-1.36 0.39 C22.52 8.48, 119.75 41.7, 144.17 49.83" stroke="#f08c00" stroke-width="2" fill="none"></path></g></g><mask></mask><g stroke-linecap="round"><g transform="translate(43.49156829768458 353.3112840097888) rotate(0 73.33333333333337 54.16666666666674)"><path d="M0.22 -0.29 C24.49 17.59, 121.85 89.27, 146.23 107.27 M-1.12 -1.49 C22.9 16.51, 120.59 89.89, 145.05 108.25" stroke="#f08c00" stroke-width="2" fill="none"></path></g></g><mask></mask><g stroke-linecap="round"><g transform="translate(218.6422074836994 201.48072227182388) rotate(0 70.55555555555566 10.555555555555657)"><path d="M-0.56 -0.38 C22.77 2.95, 117.07 17.57, 140.63 21.13 M1.34 -1.62 C24.43 2.42, 116.34 18.7, 139.44 22.67" stroke="#f08c00" stroke-width="2" fill="none"></path></g></g><mask></mask><g stroke-linecap="round"><g transform="translate(218.6422074836994 198.14738893849085) rotate(0 70.55555555555566 40.20833333333337)"><path d="M-0.48 0.02 C23.09 13.46, 117.17 66.73, 140.85 80.3 M1.47 -1.02 C24.91 12.65, 116.5 68.33, 139.76 81.78" stroke="#f08c00" stroke-width="2" fill="none"></path></g></g><mask></mask><g stroke-linecap="round"><g transform="translate(217.53109637258808 200.36961116071257) rotate(0 70.97222222222217 71.25000000000011)"><path d="M-0.27 -0.12 C23.55 23.81, 118.58 119.79, 142.4 143.54 M1.8 -1.22 C25.53 22.38, 118.29 117.83, 141.69 141.97" stroke="#f08c00" stroke-width="2" fill="none"></path></g></g><mask></mask><g stroke-linecap="round"><g transform="translate(218.85054081703242 199.05016671626822) rotate(0 72.5 -13.993055555555543)"><path d="M0.46 1.04 C24.78 -3.62, 121.81 -23.34, 145.7 -28.11 M-0.76 0.55 C23.49 -3.92, 120.64 -21.6, 145.12 -26.63" stroke="#f08c00" stroke-width="2" fill="none"></path></g></g><mask></mask></svg>